<?xml version='1.0' encoding='UTF-8'?>
<svg width="49mm" height="49mm" version="1.1" viewBox="0 0 49 49" xmlns="http://www.w3.org/2000/svg"><path d="M2,2H3V3H2zM3,2H4V3H3zM4,2H5V3H4zM5,2H6V3H5zM6,2H7V3H6zM7,2H8V3H7zM8,2H9V3H8zM11,2H12V3H11zM15,2H16V3H15zM18,2H19V3H18zM19,2H20V3H19zM21,2H22V3H21zM23,2H24V3H23zM25,2H26V3H25zM27,2H28V3H27zM31,2H32V3H31zM32,2H33V3H32zM34,2H35V3H34zM35,2H36V3H35zM38,2H39V3H38zM40,2H41V3H40zM41,2H42V3H41zM42,2H43V3H42zM43,2H44V3H43zM44,2H45V3H44zM45,2H46V3H45zM46,2H47V3H46zM2,3H3V4H2zM8,3H9V4H8zM13,3H14V4H13zM16,3H17V4H16zM19,3H20V4H19zM20,3H21V4H20zM21,3H22V4H21zM23,3H24V4H23zM26,3H27V4H26zM27,3H28V4H27zM28,3H29V4H28zM29,3H30V4H29zM33,3H34V4H33zM37,3H38V4H37zM40,3H41V4H40zM46,3H47V4H46zM2,4H3V5H2zM4,4H5V5H4zM5,4H6V5H5zM6,4H7V5H6zM8,4H9V5H8zM10,4H11V5H10zM13,4H14V5H13zM15,4H16V5H15zM16,4H17V5H16zM17,4H18V5H17zM20,4H21V5H20zM22,4H23V5H22zM23,4H24V5H23zM25,4H26V5H25zM26,4H27V5H26zM27,4H28V5H27zM30,4H31V5H30zM34,4H35V5H34zM35,4H36V5H35zM37,4H38V5H37zM40,4H41V5H40zM42,4H43V5H42zM43,4H44V5H43zM44,4H45V5H44zM46,4H47V5H46zM2,5H3V6H2zM4,5H5V6H4zM5,5H6V6H5zM6,5H7V6H6zM8,5H9V6H8zM10,5H11V6H10zM11,5H12V6H11zM12,5H13V6H12zM14,5H15V6H14zM17,5H18V6H17zM18,5H19V6H18zM20,5H21V6H20zM21,5H22V6H21zM22,5H23V6H22zM24,5H25V6H24zM25,5H26V6H25zM26,5H27V6H26zM27,5H28V6H27zM28,5H29V6H28zM29,5H30V6H29zM31,5H32V6H31zM32,5H33V6H32zM33,5H34V6H33zM35,5H36V6H35zM37,5H38V6H37zM38,5H39V6H38zM40,5H41V6H40zM42,5H43V6H42zM43,5H44V6H43zM44,5H45V6H44zM46,5H47V6H46zM2,6H3V7H2zM4,6H5V7H4zM5,6H6V7H5zM6,6H7V7H6zM8,6H9V7H8zM10,6H11V7H10zM11,6H12V7H11zM16,6H17V7H16zM19,6H20V7H19zM22,6H23V7H22zM23,6H24V7H23zM24,6H25V7H24zM25,6H26V7H25zM26,6H27V7H26zM31,6H32V7H31zM32,6H33V7H32zM36,6H37V7H36zM37,6H38V7H37zM38,6H39V7H38zM40,6H41V7H40zM42,6H43V7H42zM43,6H44V7H43zM44,6H45V7H44zM46,6H47V7H46zM2,7H3V8H2zM8,7H9V8H8zM10,7H11V8H10zM13,7H14V8H13zM15,7H16V8H15zM18,7H19V8H18zM19,7H20V8H19zM22,7H23V8H22zM26,7H27V8H26zM27,7H28V8H27zM28,7H29V8H28zM30,7H31V8H30zM31,7H32V8H31zM33,7H34V8H33zM34,7H35V8H34zM40,7H41V8H40zM46,7H47V8H46zM2,8H3V9H2zM3,8H4V9H3zM4,8H5V9H4zM5,8H6V9H5zM6,8H7V9H6zM7,8H8V9H7zM8,8H9V9H8zM10,8H11V9H10zM12,8H13V9H12zM14,8H15V9H14zM16,8H17V9H16zM18,8H19V9H18zM20,8H21V9H20zM22,8H23V9H22zM24,8H25V9H24zM26,8H27V9H26zM28,8H29V9H28zM30,8H31V9H30zM32,8H33V9H32zM34,8H35V9H34zM36,8H37V9H36zM38,8H39V9H38zM40,8H41V9H40zM41,8H42V9H41zM42,8H43V9H42zM43,8H44V9H43zM44,8H45V9H44zM45,8H46V9H45zM46,8H47V9H46zM10,9H11V10H10zM12,9H13V10H12zM14,9H15V10H14zM15,9H16V10H15zM18,9H19V10H18zM20,9H21V10H20zM22,9H23V10H22zM26,9H27V10H26zM29,9H30V10H29zM30,9H31V10H30zM31,9H32V10H31zM32,9H33V10H32zM33,9H34V10H33zM34,9H35V10H34zM35,9H36V10H35zM37,9H38V10H37zM38,9H39V10H38zM2,10H3V11H2zM4,10H5V11H4zM5,10H6V11H5zM6,10H7V11H6zM7,10H8V11H7zM8,10H9V11H8zM11,10H12V11H11zM12,10H13V11H12zM15,10H16V11H15zM16,10H17V11H16zM17,10H18V11H17zM18,10H19V11H18zM20,10H21V11H20zM22,10H23V11H22zM23,10H24V11H23zM24,10H25V11H24zM25,10H26V11H25zM26,10H27V11H26zM27,10H28V11H27zM28,10H29V11H28zM31,10H32V11H31zM32,10H33V11H32zM33,10H34V11H33zM40,10H41V11H40zM41,10H42V11H41zM42,10H43V11H42zM43,10H44V11H43zM44,10H45V11H44zM2,11H3V12H2zM4,11H5V12H4zM5,11H6V12H5zM6,11H7V12H6zM9,11H10V12H9zM10,11H11V12H10zM11,11H12V12H11zM13,11H14V12H13zM14,11H15V12H14zM18,11H19V12H18zM20,11H21V12H20zM22,11H23V12H22zM27,11H28V12H27zM29,11H30V12H29zM32,11H33V12H32zM33,11H34V12H33zM37,11H38V12H37zM38,11H39V12H38zM39,11H40V12H39zM42,11H43V12H42zM43,11H44V12H43zM44,11H45V12H44zM45,11H46V12H45zM46,11H47V12H46zM6,12H7V13H6zM7,12H8V13H7zM8,12H9V13H8zM10,12H11V13H10zM12,12H13V13H12zM15,12H16V13H15zM18,12H19V13H18zM19,12H20V13H19zM20,12H21V13H20zM22,12H23V13H22zM23,12H24V13H23zM25,12H26V13H25zM26,12H27V13H26zM27,12H28V13H27zM28,12H29V13H28zM29,12H30V13H29zM31,12H32V13H31zM33,12H34V13H33zM34,12H35V13H34zM36,12H37V13H36zM38,12H39V13H38zM40,12H41V13H40zM44,12H45V13H44zM45,12H46V13H45zM3,13H4V14H3zM5,13H6V14H5zM6,13H7V14H6zM7,13H8V14H7zM9,13H10V14H9zM11,13H12V14H11zM12,13H13V14H12zM14,13H15V14H14zM18,13H19V14H18zM21,13H22V14H21zM25,13H26V14H25zM26,13H27V14H26zM27,13H28V14H27zM30,13H31V14H30zM33,13H34V14H33zM34,13H35V14H34zM35,13H36V14H35zM36,13H37V14H36zM38,13H39V14H38zM40,13H41V14H40zM42,13H43V14H42zM43,13H44V14H43zM44,13H45V14H44zM3,14H4V15H3zM4,14H5V15H4zM5,14H6V15H5zM8,14H9V15H8zM10,14H11V15H10zM11,14H12V15H11zM12,14H13V15H12zM13,14H14V15H13zM14,14H15V15H14zM15,14H16V15H15zM16,14H17V15H16zM18,14H19V15H18zM19,14H20V15H19zM20,14H21V15H20zM21,14H22V15H21zM22,14H23V15H22zM24,14H25V15H24zM25,14H26V15H25zM26,14H27V15H26zM27,14H28V15H27zM28,14H29V15H28zM33,14H34V15H33zM36,14H37V15H36zM41,14H42V15H41zM43,14H44V15H43zM45,14H46V15H45zM46,14H47V15H46zM2,15H3V16H2zM3,15H4V16H3zM6,15H7V16H6zM7,15H8V16H7zM10,15H11V16H10zM11,15H12V16H11zM13,15H14V16H13zM14,15H15V16H14zM15,15H16V16H15zM16,15H17V16H16zM17,15H18V16H17zM18,15H19V16H18zM19,15H20V16H19zM24,15H25V16H24zM25,15H26V16H25zM27,15H28V16H27zM29,15H30V16H29zM32,15H33V16H32zM37,15H38V16H37zM38,15H39V16H38zM39,15H40V16H39zM44,15H45V16H44zM45,15H46V16H45zM46,15H47V16H46zM4,16H5V17H4zM8,16H9V17H8zM10,16H11V17H10zM11,16H12V17H11zM12,16H13V17H12zM13,16H14V17H13zM15,16H16V17H15zM16,16H17V17H16zM17,16H18V17H17zM20,16H21V17H20zM21,16H22V17H21zM22,16H23V17H22zM26,16H27V17H26zM28,16H29V17H28zM29,16H30V17H29zM31,16H32V17H31zM34,16H35V17H34zM35,16H36V17H35zM36,16H37V17H36zM37,16H38V17H37zM40,16H41V17H40zM41,16H42V17H41zM43,16H44V17H43zM44,16H45V17H44zM45,16H46V17H45zM10,17H11V18H10zM11,17H12V18H11zM12,17H13V18H12zM15,17H16V18H15zM18,17H19V18H18zM21,17H22V18H21zM26,17H27V18H26zM27,17H28V18H27zM30,17H31V18H30zM32,17H33V18H32zM33,17H34V18H33zM34,17H35V18H34zM38,17H39V18H38zM42,17H43V18H42zM43,17H44V18H43zM44,17H45V18H44zM45,17H46V18H45zM3,18H4V19H3zM4,18H5V19H4zM5,18H6V19H5zM6,18H7V19H6zM7,18H8V19H7zM8,18H9V19H8zM9,18H10V19H9zM10,18H11V19H10zM13,18H14V19H13zM17,18H18V19H17zM19,18H20V19H19zM20,18H21V19H20zM21,18H22V19H21zM22,18H23V19H22zM23,18H24V19H23zM24,18H25V19H24zM27,18H28V19H27zM31,18H32V19H31zM37,18H38V19H37zM40,18H41V19H40zM46,18H47V19H46zM4,19H5V20H4zM6,19H7V20H6zM7,19H8V20H7zM9,19H10V20H9zM10,19H11V20H10zM12,19H13V20H12zM14,19H15V20H14zM15,19H16V20H15zM25,19H26V20H25zM27,19H28V20H27zM29,19H30V20H29zM32,19H33V20H32zM34,19H35V20H34zM35,19H36V20H35zM37,19H38V20H37zM38,19H39V20H38zM41,19H42V20H41zM45,19H46V20H45zM46,19H47V20H46zM3,20H4V21H3zM5,20H6V21H5zM7,20H8V21H7zM8,20H9V21H8zM10,20H11V21H10zM11,20H12V21H11zM12,20H13V21H12zM13,20H14V21H13zM16,20H17V21H16zM19,20H20V21H19zM20,20H21V21H20zM21,20H22V21H21zM22,20H23V21H22zM23,20H24V21H23zM26,20H27V21H26zM27,20H28V21H27zM28,20H29V21H28zM29,20H30V21H29zM30,20H31V21H30zM31,20H32V21H31zM34,20H35V21H34zM36,20H37V21H36zM37,20H38V21H37zM38,20H39V21H38zM39,20H40V21H39zM40,20H41V21H40zM41,20H42V21H41zM44,20H45V21H44zM45,20H46V21H45zM2,21H3V22H2zM3,21H4V22H3zM4,21H5V22H4zM5,21H6V22H5zM6,21H7V22H6zM7,21H8V22H7zM11,21H12V22H11zM13,21H14V22H13zM15,21H16V22H15zM16,21H17V22H16zM17,21H18V22H17zM18,21H19V22H18zM19,21H20V22H19zM25,21H26V22H25zM26,21H27V22H26zM27,21H28V22H27zM29,21H30V22H29zM30,21H31V22H30zM32,21H33V22H32zM34,21H35V22H34zM35,21H36V22H35zM38,21H39V22H38zM39,21H40V22H39zM42,21H43V22H42zM43,21H44V22H43zM44,21H45V22H44zM45,21H46V22H45zM46,21H47V22H46zM3,22H4V23H3zM4,22H5V23H4zM5,22H6V23H5zM6,22H7V23H6zM7,22H8V23H7zM8,22H9V23H8zM9,22H10V23H9zM10,22H11V23H10zM13,22H14V23H13zM19,22H20V23H19zM20,22H21V23H20zM21,22H22V23H21zM22,22H23V23H22zM23,22H24V23H23zM24,22H25V23H24zM25,22H26V23H25zM26,22H27V23H26zM28,22H29V23H28zM32,22H33V23H32zM33,22H34V23H33zM36,22H37V23H36zM37,22H38V23H37zM38,22H39V23H38zM39,22H40V23H39zM40,22H41V23H40zM41,22H42V23H41zM42,22H43V23H42zM6,23H7V24H6zM10,23H11V24H10zM13,23H14V24H13zM14,23H15V24H14zM15,23H16V24H15zM19,23H20V24H19zM21,23H22V24H21zM22,23H23V24H22zM26,23H27V24H26zM27,23H28V24H27zM31,23H32V24H31zM32,23H33V24H32zM33,23H34V24H33zM37,23H38V24H37zM38,23H39V24H38zM42,23H43V24H42zM43,23H44V24H43zM44,23H45V24H44zM45,23H46V24H45zM46,23H47V24H46zM2,24H3V25H2zM6,24H7V25H6zM8,24H9V25H8zM10,24H11V25H10zM12,24H13V25H12zM15,24H16V25H15zM16,24H17V25H16zM18,24H19V25H18zM19,24H20V25H19zM22,24H23V25H22zM24,24H25V25H24zM26,24H27V25H26zM28,24H29V25H28zM29,24H30V25H29zM30,24H31V25H30zM33,24H34V25H33zM34,24H35V25H34zM36,24H37V25H36zM37,24H38V25H37zM38,24H39V25H38zM40,24H41V25H40zM42,24H43V25H42zM44,24H45V25H44zM3,25H4V26H3zM4,25H5V26H4zM5,25H6V26H5zM6,25H7V26H6zM10,25H11V26H10zM13,25H14V26H13zM14,25H15V26H14zM17,25H18V26H17zM22,25H23V26H22zM26,25H27V26H26zM30,25H31V26H30zM32,25H33V26H32zM34,25H35V26H34zM35,25H36V26H35zM38,25H39V26H38zM42,25H43V26H42zM43,25H44V26H43zM44,25H45V26H44zM2,26H3V27H2zM3,26H4V27H3zM6,26H7V27H6zM7,26H8V27H7zM8,26H9V27H8zM9,26H10V27H9zM10,26H11V27H10zM13,26H14V27H13zM14,26H15V27H14zM16,26H17V27H16zM19,26H20V27H19zM21,26H22V27H21zM22,26H23V27H22zM23,26H24V27H23zM24,26H25V27H24zM25,26H26V27H25zM26,26H27V27H26zM27,26H28V27H27zM28,26H29V27H28zM29,26H30V27H29zM31,26H32V27H31zM33,26H34V27H33zM37,26H38V27H37zM38,26H39V27H38zM39,26H40V27H39zM40,26H41V27H40zM41,26H42V27H41zM42,26H43V27H42zM3,27H4V28H3zM4,27H5V28H4zM5,27H6V28H5zM6,27H7V28H6zM9,27H10V28H9zM10,27H11V28H10zM11,27H12V28H11zM13,27H14V28H13zM15,27H16V28H15zM20,27H21V28H20zM21,27H22V28H21zM22,27H23V28H22zM24,27H25V28H24zM25,27H26V28H25zM26,27H27V28H26zM27,27H28V28H27zM32,27H33V28H32zM33,27H34V28H33zM37,27H38V28H37zM38,27H39V28H38zM40,27H41V28H40zM41,27H42V28H41zM44,27H45V28H44zM46,27H47V28H46zM3,28H4V29H3zM5,28H6V29H5zM8,28H9V29H8zM9,28H10V29H9zM10,28H11V29H10zM15,28H16V29H15zM16,28H17V29H16zM17,28H18V29H17zM19,28H20V29H19zM23,28H24V29H23zM24,28H25V29H24zM25,28H26V29H25zM28,28H29V29H28zM31,28H32V29H31zM36,28H37V29H36zM39,28H40V29H39zM45,28H46V29H45zM4,29H5V30H4zM7,29H8V30H7zM9,29H10V30H9zM10,29H11V30H10zM11,29H12V30H11zM12,29H13V30H12zM13,29H14V30H13zM22,29H23V30H22zM23,29H24V30H23zM26,29H27V30H26zM30,29H31V30H30zM31,29H32V30H31zM32,29H33V30H32zM33,29H34V30H33zM34,29H35V30H34zM35,29H36V30H35zM37,29H38V30H37zM38,29H39V30H38zM40,29H41V30H40zM43,29H44V30H43zM44,29H45V30H44zM45,29H46V30H45zM2,30H3V31H2zM3,30H4V31H3zM8,30H9V31H8zM9,30H10V31H9zM10,30H11V31H10zM11,30H12V31H11zM12,30H13V31H12zM18,30H19V31H18zM20,30H21V31H20zM21,30H22V31H21zM26,30H27V31H26zM27,30H28V31H27zM28,30H29V31H28zM29,30H30V31H29zM33,30H34V31H33zM38,30H39V31H38zM39,30H40V31H39zM42,30H43V31H42zM46,30H47V31H46zM2,31H3V32H2zM3,31H4V32H3zM4,31H5V32H4zM11,31H12V32H11zM12,31H13V32H12zM13,31H14V32H13zM17,31H18V32H17zM18,31H19V32H18zM20,31H21V32H20zM21,31H22V32H21zM22,31H23V32H22zM23,31H24V32H23zM24,31H25V32H24zM25,31H26V32H25zM26,31H27V32H26zM27,31H28V32H27zM29,31H30V32H29zM30,31H31V32H30zM31,31H32V32H31zM32,31H33V32H32zM33,31H34V32H33zM34,31H35V32H34zM35,31H36V32H35zM37,31H38V32H37zM38,31H39V32H38zM39,31H40V32H39zM45,31H46V32H45zM46,31H47V32H46zM2,32H3V33H2zM3,32H4V33H3zM6,32H7V33H6zM7,32H8V33H7zM8,32H9V33H8zM11,32H12V33H11zM12,32H13V33H12zM16,32H17V33H16zM17,32H18V33H17zM19,32H20V33H19zM22,32H23V33H22zM25,32H26V33H25zM27,32H28V33H27zM28,32H29V33H28zM31,32H32V33H31zM33,32H34V33H33zM36,32H37V33H36zM37,32H38V33H37zM39,32H40V33H39zM2,33H3V34H2zM5,33H6V34H5zM6,33H7V34H6zM10,33H11V34H10zM14,33H15V34H14zM15,33H16V34H15zM16,33H17V34H16zM19,33H20V34H19zM22,33H23V34H22zM23,33H24V34H23zM24,33H25V34H24zM26,33H27V34H26zM30,33H31V34H30zM31,33H32V34H31zM32,33H33V34H32zM33,33H34V34H33zM34,33H35V34H34zM35,33H36V34H35zM37,33H38V34H37zM40,33H41V34H40zM42,33H43V34H42zM44,33H45V34H44zM46,33H47V34H46zM2,34H3V35H2zM3,34H4V35H3zM4,34H5V35H4zM7,34H8V35H7zM8,34H9V35H8zM9,34H10V35H9zM11,34H12V35H11zM12,34H13V35H12zM13,34H14V35H13zM18,34H19V35H18zM19,34H20V35H19zM22,34H23V35H22zM25,34H26V35H25zM27,34H28V35H27zM29,34H30V35H29zM33,34H34V35H33zM35,34H36V35H35zM38,34H39V35H38zM39,34H40V35H39zM42,34H43V35H42zM43,34H44V35H43zM45,34H46V35H45zM3,35H4V36H3zM4,35H5V36H4zM6,35H7V36H6zM7,35H8V36H7zM9,35H10V36H9zM11,35H12V36H11zM12,35H13V36H12zM13,35H14V36H13zM16,35H17V36H16zM20,35H21V36H20zM21,35H22V36H21zM22,35H23V36H22zM23,35H24V36H23zM24,35H25V36H24zM25,35H26V36H25zM26,35H27V36H26zM27,35H28V36H27zM31,35H32V36H31zM32,35H33V36H32zM34,35H35V36H34zM38,35H39V36H38zM44,35H45V36H44zM46,35H47V36H46zM6,36H7V37H6zM8,36H9V37H8zM10,36H11V37H10zM13,36H14V37H13zM16,36H17V37H16zM17,36H18V37H17zM23,36H24V37H23zM25,36H26V37H25zM28,36H29V37H28zM35,36H36V37H35zM36,36H37V37H36zM37,36H38V37H37zM39,36H40V37H39zM42,36H43V37H42zM43,36H44V37H43zM44,36H45V37H44zM45,36H46V37H45zM3,37H4V38H3zM4,37H5V38H4zM5,37H6V38H5zM6,37H7V38H6zM9,37H10V38H9zM10,37H11V38H10zM13,37H14V38H13zM16,37H17V38H16zM18,37H19V38H18zM19,37H20V38H19zM20,37H21V38H20zM22,37H23V38H22zM24,37H25V38H24zM26,37H27V38H26zM30,37H31V38H30zM32,37H33V38H32zM34,37H35V38H34zM37,37H38V38H37zM38,37H39V38H38zM39,37H40V38H39zM40,37H41V38H40zM41,37H42V38H41zM44,37H45V38H44zM45,37H46V38H45zM46,37H47V38H46zM2,38H3V39H2zM5,38H6V39H5zM6,38H7V39H6zM8,38H9V39H8zM14,38H15V39H14zM18,38H19V39H18zM21,38H22V39H21zM22,38H23V39H22zM23,38H24V39H23zM24,38H25V39H24zM25,38H26V39H25zM26,38H27V39H26zM27,38H28V39H27zM29,38H30V39H29zM31,38H32V39H31zM33,38H34V39H33zM38,38H39V39H38zM39,38H40V39H39zM40,38H41V39H40zM41,38H42V39H41zM42,38H43V39H42zM43,38H44V39H43zM10,39H11V40H10zM11,39H12V40H11zM12,39H13V40H12zM15,39H16V40H15zM17,39H18V40H17zM18,39H19V40H18zM19,39H20V40H19zM21,39H22V40H21zM22,39H23V40H22zM26,39H27V40H26zM27,39H28V40H27zM29,39H30V40H29zM30,39H31V40H30zM31,39H32V40H31zM32,39H33V40H32zM35,39H36V40H35zM38,39H39V40H38zM42,39H43V40H42zM44,39H45V40H44zM45,39H46V40H45zM46,39H47V40H46zM2,40H3V41H2zM3,40H4V41H3zM4,40H5V41H4zM5,40H6V41H5zM6,40H7V41H6zM7,40H8V41H7zM8,40H9V41H8zM11,40H12V41H11zM13,40H14V41H13zM14,40H15V41H14zM15,40H16V41H15zM17,40H18V41H17zM21,40H22V41H21zM22,40H23V41H22zM24,40H25V41H24zM26,40H27V41H26zM28,40H29V41H28zM29,40H30V41H29zM31,40H32V41H31zM36,40H37V41H36zM37,40H38V41H37zM38,40H39V41H38zM40,40H41V41H40zM42,40H43V41H42zM43,40H44V41H43zM45,40H46V41H45zM2,41H3V42H2zM8,41H9V42H8zM10,41H11V42H10zM11,41H12V42H11zM13,41H14V42H13zM16,41H17V42H16zM19,41H20V42H19zM20,41H21V42H20zM22,41H23V42H22zM26,41H27V42H26zM27,41H28V42H27zM30,41H31V42H30zM32,41H33V42H32zM34,41H35V42H34zM38,41H39V42H38zM42,41H43V42H42zM43,41H44V42H43zM44,41H45V42H44zM2,42H3V43H2zM4,42H5V43H4zM5,42H6V43H5zM6,42H7V43H6zM8,42H9V43H8zM10,42H11V43H10zM11,42H12V43H11zM12,42H13V43H12zM14,42H15V43H14zM15,42H16V43H15zM22,42H23V43H22zM23,42H24V43H23zM24,42H25V43H24zM25,42H26V43H25zM26,42H27V43H26zM31,42H32V43H31zM33,42H34V43H33zM35,42H36V43H35zM36,42H37V43H36zM38,42H39V43H38zM39,42H40V43H39zM40,42H41V43H40zM41,42H42V43H41zM42,42H43V43H42zM46,42H47V43H46zM2,43H3V44H2zM4,43H5V44H4zM5,43H6V44H5zM6,43H7V44H6zM8,43H9V44H8zM10,43H11V44H10zM13,43H14V44H13zM14,43H15V44H14zM15,43H16V44H15zM16,43H17V44H16zM17,43H18V44H17zM18,43H19V44H18zM19,43H20V44H19zM20,43H21V44H20zM26,43H27V44H26zM30,43H31V44H30zM32,43H33V44H32zM35,43H36V44H35zM37,43H38V44H37zM42,43H43V44H42zM43,43H44V44H43zM44,43H45V44H44zM45,43H46V44H45zM46,43H47V44H46zM2,44H3V45H2zM4,44H5V45H4zM5,44H6V45H5zM6,44H7V45H6zM8,44H9V45H8zM10,44H11V45H10zM11,44H12V45H11zM12,44H13V45H12zM14,44H15V45H14zM15,44H16V45H15zM17,44H18V45H17zM18,44H19V45H18zM19,44H20V45H19zM22,44H23V45H22zM24,44H25V45H24zM27,44H28V45H27zM28,44H29V45H28zM31,44H32V45H31zM33,44H34V45H33zM34,44H35V45H34zM36,44H37V45H36zM38,44H39V45H38zM39,44H40V45H39zM40,44H41V45H40zM43,44H44V45H43zM45,44H46V45H45zM2,45H3V46H2zM8,45H9V46H8zM11,45H12V46H11zM12,45H13V46H12zM14,45H15V46H14zM15,45H16V46H15zM17,45H18V46H17zM18,45H19V46H18zM19,45H20V46H19zM20,45H21V46H20zM22,45H23V46H22zM23,45H24V46H23zM25,45H26V46H25zM30,45H31V46H30zM31,45H32V46H31zM32,45H33V46H32zM33,45H34V46H33zM34,45H35V46H34zM35,45H36V46H35zM38,45H39V46H38zM39,45H40V46H39zM41,45H42V46H41zM43,45H44V46H43zM44,45H45V46H44zM2,46H3V47H2zM3,46H4V47H3zM4,46H5V47H4zM5,46H6V47H5zM6,46H7V47H6zM7,46H8V47H7zM8,46H9V47H8zM10,46H11V47H10zM16,46H17V47H16zM17,46H18V47H17zM18,46H19V47H18zM21,46H22V47H21zM23,46H24V47H23zM24,46H25V47H24zM25,46H26V47H25zM26,46H27V47H26zM27,46H28V47H27zM31,46H32V47H31zM32,46H33V47H32zM33,46H34V47H33zM36,46H37V47H36zM40,46H41V47H40zM43,46H44V47H43zM45,46H46V47H45z" id="qr-path" fill="#000000" fill-opacity="1" fill-rule="nonzero" stroke="none" /></svg>